<mxfile host="app.diagrams.net" modified="2024-05-23T05:24:47.601Z" agent="Mozilla/5.0 (Windows NT 10.0; Win64; x64) AppleWebKit/537.36 (KHTML, like Gecko) Chrome/125.0.0.0 Safari/537.36" version="24.4.6" etag="g9loyF0GscLUSIW7043d" type="github">
  <diagram name="페이지-1" id="2UDu_VH62QPDRCW8U9BT">
    <mxGraphModel>
      <root>
        <mxCell id="0" />
        <mxCell id="1" parent="0" />
      </root>
    </mxGraphModel>
  </diagram>
</mxfile>
